<?xml version="1.0" ?><!DOCTYPE svg  PUBLIC '-//W3C//DTD SVG 1.1//EN'  'http://www.w3.org/Graphics/SVG/1.1/DTD/svg11.dtd'><svg height="122px" style="enable-background:new 0 0 150 122;" version="1.1" viewBox="0 0 150 122" width="150px" xml:space="preserve" xmlns="http://www.w3.org/2000/svg" xmlns:xlink="http://www.w3.org/1999/xlink"><style type="text/css">
<![CDATA[
	.st0{fill:#EF3E42;}
	.st1{fill:#FFFFFF;}
	.st2{fill:none;}
	.st3{fill-rule:evenodd;clip-rule:evenodd;fill:#FFFFFF;}
]]>
</style><defs/><path d="M65.7,97.3C36.5,97.3,13.2,80,2.1,53.9c11.2-26.1,34.5-43.4,63.6-43.4c29.1,0,52.5,17.3,63.7,43.4  C118.2,80,94.8,97.3,65.7,97.3L65.7,97.3L65.7,97.3z M65.7,86.9c23.1,0,43-13.5,52.3-33c-9.3-19.5-29.2-33-52.3-33  c-23,0-42.9,13.5-52.2,33C22.7,73.4,42.6,86.9,65.7,86.9L65.7,86.9L65.7,86.9z M41.5,53.9c0-13.4,10.8-24.2,24.1-24.2  c13.4,0,24.2,10.9,24.2,24.2c0,13.4-10.9,24.2-24.2,24.2C52.3,78.1,41.5,67.2,41.5,53.9L41.5,53.9L41.5,53.9z M67.1,47.8  c0,4.2,3.3,7.6,7.6,7.6c4.1,0,7.5-3.4,7.5-7.6c0-4.1-3.3-7.5-7.5-7.5C70.5,40.3,67.1,43.6,67.1,47.8L67.1,47.8L67.1,47.8z"/><rect class="st2" height="122" id="_x3C_Slice_x3E__100_" width="150"/></svg>