<?xml version="1.0" ?><!DOCTYPE svg  PUBLIC '-//W3C//DTD SVG 1.1//EN'  'http://www.w3.org/Graphics/SVG/1.1/DTD/svg11.dtd'><svg height="100%" style="fill-rule:evenodd;clip-rule:evenodd;stroke-linejoin:round;stroke-miterlimit:2;" version="1.1" viewBox="0 0 32 32" width="100%" xml:space="preserve" xmlns="http://www.w3.org/2000/svg" xmlns:serif="http://www.serif.com/" xmlns:xlink="http://www.w3.org/1999/xlink"><path d="M5.112,18.784l-2.153,2.156c-0.585,0.586 -0.585,1.536 0.001,2.121c0.586,0.585 1.536,0.585 2.121,-0.001l2.666,-2.668c1.898,0.983 4.19,1.806 6.773,2.041l0,3.567c0,0.828 0.672,1.5 1.5,1.5c0.828,-0 1.5,-0.672 1.5,-1.5l0,-3.571c2.147,-0.201 4.091,-0.806 5.774,-1.571l3.199,3.202c0.585,0.586 1.535,0.586 2.121,0.001c0.586,-0.585 0.586,-1.535 0.001,-2.121l-2.579,-2.581c2.59,-1.665 4.091,-3.369 4.091,-3.369c0.546,-0.622 0.485,-1.57 -0.137,-2.117c-0.622,-0.546 -1.57,-0.485 -2.117,0.137c0,-0 -4.814,5.49 -11.873,5.49c-7.059,0 -11.873,-5.49 -11.873,-5.49c-0.547,-0.622 -1.495,-0.683 -2.117,-0.137c-0.622,0.547 -0.683,1.495 -0.137,2.117c0,0 1.175,1.334 3.239,2.794Z"/><g id="Icon"/></svg>