<svg width="29" height="31" viewBox="0 0 29 31" fill="none" xmlns="http://www.w3.org/2000/svg">
<path d="M9.05954 13.8231C8.44111 13.1008 7.37784 13.0444 6.68345 13.6989C5.98907 14.3422 5.93482 15.4481 6.5641 16.1704L11.8371 22.2645C12.1517 22.6369 12.6074 22.84 13.0848 22.84C13.1065 22.84 13.1282 22.84 13.1499 22.84C13.649 22.8175 14.1155 22.5692 14.4193 22.1516L28.6542 2.80859C29.2184 2.04119 29.0773 0.946516 28.3396 0.35968C27.6018 -0.227156 26.5493 -0.0804478 25.9852 0.686953L23.0123 4.73838C21.8948 3.97098 20.5603 3.51957 19.1281 3.51957H7.04149C3.15728 3.51957 0 6.80359 0 10.8437V23.3817C0 27.4219 3.15728 30.7059 7.04149 30.7059H19.1173C23.0015 30.7059 26.1588 27.4219 26.1588 23.3817V10.8324C26.1588 10.2569 26.0937 9.69263 25.9743 9.16222L22.7953 13.4732V23.3817C22.7953 25.4921 21.1462 27.2074 19.1173 27.2074H7.04149C5.01259 27.2074 3.36342 25.4921 3.36342 23.3817V10.8324C3.36342 8.72209 5.01259 7.00673 7.04149 7.00673H19.1173C19.7791 7.00673 20.4084 7.19858 20.9509 7.51457L12.9763 18.3485L9.05954 13.8231Z" fill="#5A4A67"/>
</svg>
