<svg width="29" height="31" viewBox="0 0 29 31" fill="none" xmlns="http://www.w3.org/2000/svg">
<path d="M20.7261 19.3119H19.4162L18.952 18.8379C20.5769 16.8364 21.5552 14.2381 21.5552 11.4116C21.5552 5.10887 16.7301 0 10.7776 0C4.82504 0 0 5.10887 0 11.4116C0 17.7143 4.82504 22.8231 10.7776 22.8231C13.4471 22.8231 15.9011 21.7873 17.7913 20.0668L18.239 20.5584V21.9453L26.5294 30.7059L29 28.09L20.7261 19.3119ZM10.7776 19.3119C6.64894 19.3119 3.31618 15.7831 3.31618 11.4116C3.31618 7.04006 6.64894 3.51125 10.7776 3.51125C14.9062 3.51125 18.239 7.04006 18.239 11.4116C18.239 15.7831 14.9062 19.3119 10.7776 19.3119Z" fill="#5A4A67"/>
</svg>
