<?xml version="1.0" standalone="no"?>
<!DOCTYPE svg PUBLIC "-//W3C//DTD SVG 20010904//EN"
 "http://www.w3.org/TR/2001/REC-SVG-20010904/DTD/svg10.dtd">
<svg version="1.0" xmlns="http://www.w3.org/2000/svg"
 width="1600.000000pt" height="1600.000000pt" viewBox="0 0 1600.000000 1600.000000"
 preserveAspectRatio="xMidYMid meet">
<metadata>
Created by potrace 1.14, written by Peter Selinger 2001-2017
</metadata>
<g transform="translate(0.000000,1600.000000) scale(0.100000,-0.100000)"
fill="#000000" stroke="none">
<path d="M10926 12162 c-3 -2 -38 -6 -78 -8 -132 -5 -231 -14 -388 -35 -85
-12 -169 -23 -187 -24 -17 -2 -57 -8 -90 -14 -32 -6 -76 -13 -98 -16 -22 -4
-48 -8 -57 -11 -17 -5 -44 -11 -91 -19 -15 -3 -56 -12 -90 -21 -34 -8 -73 -17
-87 -20 -14 -3 -45 -11 -70 -19 -25 -7 -79 -23 -120 -35 -41 -11 -84 -25 -95
-30 -11 -4 -47 -18 -80 -29 -129 -43 -232 -82 -281 -106 -28 -14 -54 -25 -58
-25 -15 0 -418 -195 -456 -220 -14 -10 -63 -39 -110 -65 -149 -84 -432 -274
-585 -393 -5 -4 -37 -28 -69 -52 -33 -24 -67 -49 -75 -56 -9 -7 -68 -54 -131
-105 -112 -90 -265 -221 -285 -244 -5 -6 -22 -19 -37 -29 l-26 -17 -107 93
c-59 51 -162 137 -229 191 -66 54 -132 108 -145 119 -13 11 -60 46 -105 79
-44 32 -86 63 -93 69 -12 10 -258 173 -298 197 -50 31 -134 79 -180 103 -27
15 -67 37 -88 48 -20 12 -40 22 -45 22 -4 0 -48 21 -99 45 -51 25 -95 45 -99
45 -6 0 -28 9 -119 49 -27 12 -57 23 -65 25 -15 3 -26 7 -90 33 -49 20 -138
49 -180 58 -19 4 -40 11 -45 16 -6 4 -24 10 -40 13 -17 2 -30 5 -30 6 0 1 -11
3 -25 6 -14 2 -45 11 -70 19 -42 14 -255 58 -331 69 -53 8 -171 26 -199 31
-107 18 -410 38 -575 39 -105 1 -163 -2 -387 -19 -25 -2 -70 -7 -100 -10 -29
-4 -64 -9 -78 -10 -23 -2 -129 -17 -140 -20 -7 -2 -88 -16 -125 -21 -16 -3
-50 -10 -75 -15 -25 -6 -54 -12 -65 -13 -29 -4 -123 -27 -173 -42 -23 -8 -46
-13 -50 -12 -4 1 -20 -4 -36 -11 -16 -6 -39 -13 -50 -14 -12 -1 -23 -4 -26 -7
-3 -3 -39 -16 -80 -30 -41 -13 -77 -27 -80 -30 -3 -3 -12 -6 -22 -8 -34 -5
-423 -176 -438 -192 -3 -3 -39 -22 -80 -42 -102 -51 -144 -76 -294 -175 -108
-72 -266 -187 -313 -228 -6 -5 -30 -26 -54 -45 -23 -19 -67 -57 -97 -85 -30
-27 -66 -59 -80 -70 -33 -25 -62 -54 -87 -87 -11 -14 -47 -55 -80 -90 -81 -87
-112 -123 -168 -193 -27 -33 -55 -69 -64 -79 -28 -34 -165 -237 -187 -276 -11
-21 -40 -69 -62 -107 -91 -149 -204 -398 -279 -613 -78 -224 -100 -297 -130
-423 -13 -56 -26 -115 -29 -132 -3 -16 -7 -41 -10 -55 -2 -14 -8 -47 -12 -75
-4 -27 -9 -57 -10 -65 -2 -8 -6 -37 -9 -65 -3 -27 -7 -61 -10 -75 -2 -14 -6
-54 -9 -90 -3 -36 -9 -108 -13 -160 -10 -123 -10 -280 0 -400 4 -52 10 -120
13 -150 7 -96 19 -185 45 -339 25 -151 25 -147 45 -235 17 -73 62 -223 73
-241 3 -5 6 -12 6 -15 3 -21 58 -174 86 -237 11 -24 19 -45 19 -49 0 -14 99
-218 160 -329 172 -314 466 -714 685 -930 123 -121 232 -214 380 -323 61 -45
122 -91 137 -102 80 -61 304 -184 473 -261 63 -29 338 -140 355 -144 8 -1 40
-10 70 -19 30 -9 57 -16 60 -15 3 0 18 -5 35 -11 30 -12 143 -37 205 -46 19
-3 44 -8 55 -11 11 -3 29 -7 40 -9 11 -1 43 -5 70 -8 28 -4 64 -9 80 -12 17
-2 57 -7 90 -10 33 -3 78 -7 100 -8 48 -5 298 -17 377 -20 53 -1 73 -10 113
-51 55 -56 244 -149 345 -170 18 -4 126 -18 130 -18 3 1 28 4 55 7 28 3 73 9
100 12 28 3 61 7 75 9 14 1 43 5 65 8 35 6 85 13 150 22 237 32 569 113 839
204 188 64 225 78 316 117 19 9 44 19 55 23 88 36 111 46 115 51 11 11 73 40
87 40 15 0 271 132 373 193 64 38 315 204 340 226 14 11 30 25 37 31 7 5 15
10 18 10 3 0 55 39 116 88 61 48 123 96 138 107 14 11 31 24 37 30 6 5 51 46
100 90 49 44 107 97 128 118 21 21 61 56 88 79 47 39 49 40 68 23 11 -10 20
-26 20 -36 0 -35 42 -129 90 -203 92 -142 208 -241 370 -320 184 -89 277 -119
405 -132 28 -2 57 -7 65 -10 8 -3 66 -8 128 -11 62 -2 120 -6 130 -8 9 -2 23
-4 31 -4 7 -1 11 -7 8 -16 -4 -8 -2 -17 2 -20 5 -3 14 -28 21 -55 12 -51 78
-161 142 -237 34 -40 118 -113 186 -161 80 -57 262 -139 345 -157 10 -2 27 -7
37 -10 48 -15 153 -33 245 -41 98 -9 165 -9 275 2 47 4 95 8 108 8 12 1 22 5
22 9 0 5 4 6 9 3 21 -13 243 46 405 108 37 14 75 26 83 26 7 0 23 -21 34 -47
18 -42 70 -124 158 -247 34 -48 116 -107 201 -147 36 -16 73 -34 83 -40 20
-11 138 -42 197 -52 129 -22 222 -26 315 -14 33 4 80 10 105 13 243 30 508
150 768 346 57 43 108 83 115 88 52 44 73 60 80 60 4 0 46 -27 93 -59 138 -96
359 -162 494 -146 30 4 71 8 90 10 19 3 48 8 65 12 16 4 32 7 35 8 14 2 128
51 150 64 29 18 32 20 86 63 23 18 57 46 77 61 39 31 264 360 272 397 0 3 6
14 12 25 6 11 12 23 13 27 2 10 57 137 73 167 6 14 23 28 37 32 14 4 52 15 85
25 79 24 205 91 269 145 110 92 225 259 295 430 24 57 48 113 54 124 6 11 12
27 13 35 0 8 10 38 21 65 12 28 33 100 48 160 l27 111 57 29 c31 16 75 44 98
62 23 18 44 33 47 33 24 0 216 238 216 267 0 8 14 43 31 78 17 35 32 70 33 77
2 7 8 26 14 41 7 15 15 40 18 55 4 15 9 32 13 37 3 6 6 15 8 20 1 6 11 51 22
101 11 50 23 115 26 145 12 103 27 214 30 217 2 2 -2 23 -9 47 -8 24 -10 49
-5 56 4 7 6 16 5 19 -2 3 -7 30 -11 60 -3 30 -8 65 -9 78 -2 12 -6 25 -9 28
-14 15 19 63 68 99 56 41 141 144 187 225 48 85 99 268 101 360 0 13 -21 155
-39 259 -9 55 -84 264 -96 269 -5 2 -8 11 -8 20 0 36 -89 197 -177 320 -76
107 -66 94 -139 177 -87 100 -108 131 -101 150 7 17 21 144 21 185 -1 100 -16
178 -57 290 -45 126 -81 176 -248 346 l-70 72 47 38 c112 91 191 194 234 307
25 64 34 100 55 225 3 19 6 37 7 40 1 4 -2 32 -7 62 -4 30 -9 63 -10 73 -2 9
-3 18 -4 20 -1 1 -4 18 -7 37 -12 94 -78 238 -160 347 -41 54 -75 86 -137 126
-94 62 -134 84 -168 91 -13 2 -44 12 -69 21 -25 9 -70 18 -100 21 -82 9 -89
10 -94 15 -6 6 -114 3 -196 -5 -30 -3 -86 -8 -124 -12 -38 -3 -78 -9 -90 -13
-12 -5 -28 -6 -36 -3 -21 7 -104 64 -108 74 -2 4 -10 8 -17 8 -7 0 -15 4 -17
8 -6 17 -215 111 -273 122 -88 18 -109 18 -235 2 -78 -9 -144 -25 -206 -48
-104 -39 -106 -39 -142 -20 -36 19 -183 69 -204 70 -10 0 -18 3 -18 6 0 3 -8
6 -17 7 -10 0 -101 24 -203 52 -101 28 -200 54 -220 57 -19 3 -60 12 -90 20
-30 7 -71 16 -90 19 -19 3 -66 12 -105 20 -38 8 -88 17 -110 20 -22 3 -51 8
-65 11 -14 2 -34 6 -45 8 -11 2 -51 7 -90 10 -38 4 -77 9 -85 11 -8 2 -42 7
-75 10 -33 3 -78 8 -100 10 -22 2 -74 7 -115 10 -41 3 -111 8 -155 11 -156 12
-212 15 -357 18 -81 2 -150 1 -152 -2z m294 -777 c158 -7 303 -16 335 -21 17
-3 55 -6 85 -9 52 -3 91 -8 185 -21 39 -5 226 -37 295 -50 19 -3 44 -8 55 -9
11 -2 61 -13 110 -25 50 -12 97 -23 105 -25 66 -14 329 -85 415 -111 l60 -18
-55 -8 c-30 -4 -66 -5 -80 -3 -14 3 -72 8 -130 11 -105 7 -158 9 -320 14 -47
1 -90 7 -97 12 -7 5 -14 5 -18 -2 -3 -6 -10 -8 -14 -5 -14 8 -129 8 -266 0
-71 -4 -170 -9 -220 -10 -88 -3 -169 -9 -290 -20 -33 -3 -85 -8 -115 -11 -30
-3 -66 -7 -80 -9 -14 -2 -52 -7 -85 -11 -33 -3 -69 -8 -80 -10 -11 -3 -36 -7
-55 -10 -84 -13 -256 -45 -270 -51 -8 -3 -18 -5 -23 -5 -4 1 -43 -7 -86 -18
-43 -11 -87 -22 -97 -25 -143 -31 -480 -144 -648 -216 -108 -47 -324 -156
-386 -194 -30 -19 -62 -38 -70 -42 -23 -10 -218 -140 -234 -155 -7 -7 -24 -20
-36 -28 -46 -31 -178 -138 -210 -170 -3 -3 -34 -30 -70 -60 -73 -62 -101 -90
-174 -174 -28 -32 -56 -64 -61 -70 -40 -42 -189 -212 -230 -261 -28 -33 -52
-62 -55 -65 -11 -10 -227 -286 -263 -336 -20 -29 -45 -55 -54 -58 -14 -6 -24
-1 -69 39 -6 6 -51 44 -100 85 -48 41 -138 118 -200 170 -61 52 -128 109 -150
126 l-38 31 54 69 c29 38 67 83 84 100 17 18 42 45 55 60 85 100 178 197 261
271 52 47 113 101 135 121 71 65 428 342 441 342 2 0 10 5 17 10 54 48 367
250 385 250 3 0 13 6 21 14 38 32 385 208 516 261 50 20 99 40 110 44 18 8
166 59 190 65 6 2 17 5 25 8 59 20 231 71 237 70 2 -1 17 4 35 9 18 5 56 15
83 20 28 6 68 15 90 20 22 5 51 11 65 13 14 3 63 11 110 20 83 15 155 25 235
31 22 2 40 5 40 5 0 3 125 12 329 25 44 3 81 7 84 9 2 3 23 2 45 0 23 -3 85
-7 137 -9z m-7066 -220 c34 -2 97 -7 141 -10 89 -6 274 -28 332 -39 12 -3 43
-8 70 -12 26 -5 50 -8 53 -9 3 -1 19 -4 35 -8 17 -4 41 -8 55 -11 14 -2 45 -9
70 -16 25 -7 52 -14 60 -15 16 -4 167 -51 265 -83 64 -21 142 -52 209 -81 23
-10 62 -27 88 -37 27 -10 48 -22 48 -26 0 -5 6 -8 13 -8 7 0 65 -28 128 -61
143 -77 142 -77 212 -122 31 -20 59 -37 62 -37 6 0 120 -81 280 -200 183 -136
339 -269 625 -533 108 -99 294 -273 344 -321 28 -26 89 -83 135 -125 46 -42
89 -81 95 -86 6 -6 67 -60 136 -120 69 -60 127 -112 130 -115 5 -6 78 -68 304
-258 61 -51 120 -101 131 -110 11 -9 67 -55 125 -102 58 -46 121 -98 141 -115
68 -58 90 -76 217 -177 70 -57 129 -105 132 -108 3 -3 21 -17 40 -30 32 -22
128 -98 140 -110 5 -6 182 -138 234 -175 15 -11 47 -34 70 -51 74 -56 346
-244 351 -244 4 0 32 -17 63 -39 31 -21 80 -50 107 -65 28 -15 64 -35 80 -46
17 -11 56 -33 88 -50 32 -16 71 -39 87 -50 15 -11 35 -20 43 -20 9 0 18 -4 22
-9 8 -15 233 -116 332 -151 29 -10 67 -25 85 -33 76 -32 270 -88 387 -113 14
-3 27 -7 31 -9 4 -2 29 -7 56 -11 27 -3 53 -8 57 -11 4 -3 27 -7 50 -9 98 -10
180 -27 166 -34 -8 -4 -54 -11 -104 -14 -49 -4 -112 -9 -140 -13 -62 -8 -76
-8 -145 0 -30 4 -93 9 -140 12 -161 12 -185 14 -255 24 -38 6 -90 13 -115 17
-74 10 -112 17 -170 29 -111 24 -138 31 -150 35 -3 1 -9 3 -15 4 -38 6 -520
163 -570 185 -11 5 -69 28 -130 51 -60 23 -124 48 -142 56 -17 8 -33 14 -36
14 -13 0 -350 163 -437 211 -30 17 -80 44 -110 60 -30 16 -77 42 -105 59 -27
17 -57 33 -65 37 -8 3 -33 18 -55 32 -51 33 -68 43 -135 82 -30 17 -57 35 -60
39 -3 4 -16 13 -30 20 -26 14 -183 117 -260 171 -56 40 -353 261 -360 269 -3
3 -21 17 -40 31 -19 15 -49 39 -66 55 -17 16 -46 40 -64 54 -18 14 -39 31 -46
38 -7 6 -16 12 -21 12 -4 -1 3 -10 17 -21 14 -11 75 -67 135 -124 61 -56 137
-124 170 -151 33 -27 69 -57 80 -67 34 -32 207 -171 270 -217 33 -24 62 -46
65 -49 20 -23 490 -341 504 -341 3 0 41 -22 84 -48 42 -27 91 -55 107 -63 17
-9 55 -29 85 -46 85 -47 105 -57 110 -58 3 -1 39 -18 80 -40 41 -21 81 -40 88
-41 8 -1 22 -10 31 -18 10 -9 23 -16 29 -16 6 0 35 -11 64 -24 30 -14 78 -34
108 -46 30 -11 64 -25 75 -30 11 -5 65 -25 120 -45 55 -20 109 -40 120 -45 49
-22 317 -101 425 -126 78 -18 214 -45 250 -49 25 -3 52 -8 60 -10 25 -7 175
-27 295 -39 47 -5 77 -8 250 -21 39 -3 102 -8 140 -12 108 -10 109 -10 375 13
66 6 117 12 190 24 30 5 71 11 90 14 72 12 257 65 343 100 152 61 345 170 470
266 69 52 97 76 177 150 19 18 69 57 110 88 41 31 77 59 80 62 3 3 43 37 90
76 267 222 365 481 245 644 -47 64 -98 89 -250 120 -87 18 -91 18 -180 -1 -95
-21 -102 -24 -288 -114 -161 -77 -221 -138 -218 -222 0 -31 17 -57 78 -120 21
-22 21 -23 4 -33 -10 -5 -21 -7 -23 -4 -3 2 -23 6 -44 9 -21 3 -71 9 -110 14
-63 9 -87 13 -144 25 -8 2 -19 0 -25 -4 -5 -4 -22 -10 -36 -13 -37 -9 -50 -44
-34 -91 13 -36 12 -38 -13 -47 -25 -10 -123 -13 -167 -6 -11 2 -42 7 -70 11
-92 15 -302 137 -344 199 -8 12 -26 36 -42 52 -39 42 -90 133 -79 140 5 3 20
0 32 -7 28 -15 23 -13 124 -36 102 -23 211 -19 267 10 24 12 22 21 -18 77 -19
26 -35 51 -35 53 0 3 24 5 53 5 63 1 268 12 317 18 35 4 184 50 204 63 6 4 13
7 16 7 5 1 35 18 115 70 85 55 164 127 232 210 68 83 153 200 153 211 0 33 85
70 180 80 61 6 100 15 100 23 0 4 -6 8 -12 8 -7 1 -35 4 -63 7 -108 14 -427 9
-545 -9 -39 -6 -100 -12 -205 -20 -38 -3 -100 -8 -137 -10 -113 -9 -207 -39
-276 -86 -34 -24 -62 -49 -62 -56 0 -7 -4 -13 -10 -13 -5 0 -10 -5 -10 -10 0
-16 -50 -57 -98 -80 -49 -23 -74 -26 -282 -35 -170 -7 -229 -22 -264 -68 -32
-42 -56 -146 -46 -195 5 -20 11 -53 14 -73 3 -20 10 -48 16 -63 13 -35 -9 -45
-53 -24 -54 26 -197 137 -197 153 0 8 -4 15 -8 15 -14 0 -70 103 -97 175 l-25
69 26 86 c35 119 40 127 98 149 57 21 81 53 70 96 -10 40 -57 55 -111 36 -23
-9 -47 -25 -54 -38 -12 -23 -38 -38 -48 -27 -3 3 -6 29 -5 59 0 61 20 97 65
121 31 16 39 18 119 35 49 11 182 13 245 3 61 -9 275 -12 275 -4 0 4 11 6 25
5 14 -2 27 0 30 5 2 4 26 13 52 20 27 8 75 30 108 49 86 51 152 82 183 86 15
2 52 6 82 9 140 14 162 26 251 138 36 46 78 89 95 96 69 30 77 37 81 67 2 17
13 39 23 49 17 18 17 21 3 31 -12 9 -37 4 -116 -22 -98 -34 -108 -40 -335
-196 -56 -39 -184 -107 -200 -107 -5 0 -19 9 -32 20 -13 11 -40 25 -61 30 -38
10 -73 45 -63 62 3 4 1 8 -4 8 -21 0 18 86 63 141 11 14 34 34 51 46 45 32
214 116 334 166 159 66 342 188 461 306 8 9 55 52 104 96 48 44 100 91 115
105 23 21 70 64 216 195 12 11 48 43 80 70 31 28 62 55 68 60 6 6 58 47 116
91 92 71 138 102 275 190 27 17 276 144 282 144 2 0 3 -6 3 -14 0 -8 -15 -25
-32 -37 -37 -26 -50 -39 -129 -136 -132 -159 -234 -328 -291 -481 -21 -57 -18
-74 10 -55 9 7 58 37 107 68 50 31 122 76 160 101 39 24 86 53 105 64 19 11
53 32 75 45 40 25 172 92 230 116 53 22 160 60 175 63 9 1 20 5 25 8 26 15
219 54 315 63 99 9 155 17 162 21 12 8 59 -8 56 -18 -2 -6 -22 -17 -43 -25
-117 -43 -314 -138 -370 -177 -16 -11 -46 -29 -65 -40 -69 -37 -316 -232 -410
-324 -49 -48 -53 -55 -37 -64 13 -7 29 -5 55 5 21 8 53 18 72 21 19 3 46 8 60
11 70 16 79 18 103 16 20 -1 23 -26 4 -34 -13 -5 -182 -131 -203 -152 -6 -5
-30 -25 -55 -44 -46 -36 -94 -89 -87 -96 2 -3 51 -7 109 -10 221 -12 278 -20
399 -60 165 -55 265 -111 446 -251 99 -77 110 -89 89 -98 -8 -3 -21 -3 -29 0
-49 19 -142 30 -170 21 -137 -42 -179 -102 -150 -214 18 -68 71 -146 137 -202
29 -24 77 -65 107 -91 30 -26 78 -67 105 -91 28 -23 58 -50 69 -58 103 -87
158 -140 209 -199 119 -140 206 -282 246 -402 37 -110 39 -120 31 -125 -4 -2
-38 12 -76 32 -104 55 -156 66 -221 47 -106 -31 -155 -104 -154 -232 0 -40 2
-76 5 -81 3 -4 8 -30 12 -57 3 -27 8 -52 10 -56 4 -6 17 -68 30 -138 2 -14 11
-54 19 -90 29 -133 45 -217 51 -270 8 -76 12 -173 6 -183 -2 -5 -5 -32 -7 -60
-2 -51 -20 -158 -32 -187 -4 -8 -7 -17 -8 -20 -21 -62 -48 -120 -55 -120 -4 0
-13 28 -20 63 -30 151 -99 290 -167 335 -19 12 -39 22 -44 22 -5 0 -9 3 -9 8
0 4 -26 15 -58 26 -56 17 -60 17 -93 1 -63 -32 -86 -73 -97 -174 -10 -104 -5
-226 13 -331 13 -70 25 -320 16 -320 -3 0 -6 -30 -7 -68 -1 -99 -14 -169 -52
-292 -14 -47 -27 -88 -28 -92 -1 -5 -3 -10 -4 -13 -1 -3 -3 -8 -4 -12 -3 -13
-81 -165 -106 -206 -12 -21 -25 -36 -27 -33 -3 3 0 41 6 84 6 43 9 85 7 93 -3
8 -7 31 -11 52 -13 92 -79 190 -163 240 -59 36 -142 60 -177 53 -102 -21 -150
-51 -191 -122 -36 -62 -61 -212 -40 -242 5 -7 6 -15 3 -18 -3 -3 0 -22 7 -42
9 -25 10 -45 4 -62 -9 -26 -15 -95 -23 -267 -7 -166 -33 -299 -74 -380 -41
-81 -52 -102 -70 -133 -12 -19 -24 -43 -27 -52 -11 -30 -34 -30 -35 0 0 15 -2
36 -4 47 -2 11 -6 40 -9 65 -12 97 -16 111 -49 182 -46 99 -94 150 -175 190
-132 65 -244 35 -432 -118 -52 -43 -100 -83 -106 -88 -6 -6 -31 -29 -55 -52
-40 -38 -115 -120 -161 -179 -41 -53 -282 -250 -358 -294 -153 -88 -299 -124
-430 -108 -19 3 -42 5 -50 6 -9 1 -2 9 15 18 73 38 127 113 154 214 26 93 20
146 -22 218 -21 35 -83 68 -181 98 -63 19 -67 19 -151 27 -39 4 -80 8 -90 10
-11 2 -42 7 -70 10 -90 13 -267 48 -304 61 -33 11 -42 9 -106 -18 -72 -30
-261 -118 -305 -141 -14 -7 -50 -21 -80 -31 -30 -10 -60 -21 -65 -26 -6 -4
-22 -10 -35 -13 -14 -3 -52 -13 -85 -22 -33 -9 -80 -17 -105 -19 -25 -2 -54
-7 -64 -11 -50 -20 -357 47 -370 81 -3 8 8 18 27 25 69 26 103 47 146 91 69
68 84 95 100 170 17 77 -22 180 -81 213 -18 11 -35 22 -38 25 -30 35 -196 141
-318 204 l-154 78 -41 -19 c-104 -48 -137 -62 -207 -85 -113 -38 -153 -48
-259 -63 -50 -7 -70 -11 -86 -15 -5 -1 -21 1 -35 4 -24 6 -47 10 -130 24 -43
6 -160 60 -160 73 0 5 18 14 41 20 53 15 144 74 166 108 10 15 21 29 25 32 17
13 51 108 51 145 1 59 -20 119 -51 150 -35 35 -137 111 -287 215 l-120 83 -45
-18 c-70 -28 -183 -67 -205 -71 -11 -2 -38 -8 -60 -13 -22 -6 -65 -13 -95 -17
-30 -3 -58 -8 -61 -10 -13 -7 -206 27 -263 47 -99 35 -102 49 -20 76 51 18
131 81 164 131 46 69 63 136 50 197 -12 59 -44 115 -64 115 -8 0 -45 -46 -82
-102 -65 -101 -246 -343 -301 -404 -15 -17 -48 -55 -73 -84 -112 -132 -245
-269 -374 -385 -49 -44 -97 -87 -106 -96 -38 -36 -281 -219 -380 -285 -98 -66
-145 -95 -230 -140 -19 -11 -37 -21 -40 -24 -3 -3 -36 -21 -75 -41 -38 -20
-92 -47 -120 -62 -72 -37 -281 -129 -297 -131 -3 -1 -10 -4 -14 -9 -4 -4 -14
-7 -22 -7 -8 0 -28 -6 -45 -14 -124 -54 -496 -161 -511 -146 -13 13 -17 11
104 50 58 19 110 37 115 41 6 3 28 12 50 19 69 21 270 116 375 176 507 290
846 606 1292 1204 140 188 228 313 228 324 0 3 26 49 58 103 32 54 68 118 81
143 13 25 30 52 37 60 7 8 13 17 13 20 0 3 3 13 6 22 9 23 -17 55 -81 101
l-53 37 -48 -19 c-52 -20 -218 -51 -298 -55 -27 -2 -75 3 -105 10 -38 8 -60 9
-73 2 -22 -11 -10 -29 20 -32 30 -4 73 -18 73 -25 0 -3 -15 -29 -32 -57 -18
-28 -37 -58 -43 -67 -62 -101 -292 -400 -393 -512 -101 -112 -229 -251 -258
-279 -64 -64 -354 -328 -418 -381 -27 -22 -63 -52 -80 -66 -56 -46 -245 -179
-255 -179 -5 0 -16 -6 -23 -13 -21 -21 -119 -79 -190 -114 -21 -10 -38 -21
-38 -25 0 -5 -6 -8 -12 -8 -7 0 -35 -11 -63 -24 -72 -35 -128 -59 -262 -112
-65 -25 -127 -49 -138 -54 -95 -38 -290 -90 -474 -125 -57 -11 -184 -28 -231
-31 -57 -3 -135 -11 -205 -21 -45 -6 -104 -5 -116 3 -5 2 -41 7 -81 9 -144 10
-211 15 -232 20 -11 2 -34 6 -51 9 -16 2 -68 12 -115 21 -47 9 -95 19 -107 21
-94 18 -379 126 -523 199 -220 110 -323 181 -565 384 -98 82 -151 137 -324
336 -66 77 -234 318 -285 410 -9 17 -27 48 -39 70 -65 114 -139 271 -179 380
-16 44 -38 103 -49 130 -21 55 -52 161 -78 270 -12 50 -20 91 -26 134 -3 18
-7 36 -9 40 -3 4 -7 35 -11 70 -4 34 -8 72 -11 84 -12 62 -25 487 -14 487 3 0
5 35 6 78 1 92 15 223 35 328 5 28 12 64 15 80 3 16 10 47 15 69 5 22 16 68
24 102 7 34 20 75 29 91 8 16 13 31 11 34 -14 14 117 355 191 496 30 57 54
110 54 118 0 8 5 14 10 14 6 0 10 5 10 10 0 6 8 23 19 38 10 15 40 61 67 102
56 86 166 237 215 295 91 107 257 274 339 341 19 16 41 35 49 42 38 36 274
207 326 236 17 9 48 28 70 42 40 24 276 143 351 176 97 42 244 99 269 104 6 1
44 13 85 27 41 14 86 28 100 30 14 3 45 10 70 17 25 7 56 14 70 17 14 2 41 8
60 13 19 5 53 11 75 15 23 3 52 8 65 11 65 13 207 30 330 39 126 8 225 17 228
20 2 1 26 1 54 -1 28 -2 78 -6 112 -9z m7221 -315 c3 -5 0 -10 -7 -11 -7 0
-20 -2 -28 -5 -14 -3 -92 -20 -135 -29 -11 -2 -20 -4 -20 -5 0 -1 -8 -3 -18
-5 -27 -5 -182 -53 -282 -87 -95 -32 -122 -43 -224 -90 -36 -17 -69 -31 -75
-32 -18 -3 -107 -48 -173 -88 -34 -21 -65 -38 -69 -38 -9 0 -204 -120 -250
-155 -23 -16 -52 -37 -64 -45 -32 -21 -286 -233 -341 -285 -25 -24 -55 -55
-67 -70 -12 -15 -52 -61 -90 -103 -38 -43 -90 -102 -116 -132 -27 -30 -58 -66
-70 -80 -19 -21 -86 -99 -172 -200 -115 -135 -309 -377 -374 -465 -24 -33 -48
-64 -53 -70 -4 -5 -47 -62 -93 -125 -47 -63 -90 -115 -96 -115 -14 0 -165 122
-215 173 l-42 44 56 81 c60 86 178 244 252 337 24 30 58 73 75 94 155 196 370
427 520 561 43 39 88 79 100 90 75 71 474 345 502 345 3 0 18 8 32 19 29 20
281 148 347 176 228 97 381 153 500 186 39 11 77 22 85 24 45 13 187 48 200
49 8 2 24 5 35 9 11 3 34 9 50 11 17 3 53 10 82 15 29 6 74 13 100 17 26 3 50
8 52 10 9 8 80 3 86 -6z"/>
<path d="M3807 9464 c-1 -1 -26 -5 -56 -8 -59 -7 -73 -15 -140 -79 -211 -200
-382 -296 -576 -323 -22 -3 -44 -10 -48 -14 -5 -4 -23 -3 -40 3 -18 5 -38 11
-44 13 -21 6 -14 30 11 42 28 12 100 118 91 132 -6 10 -66 -28 -183 -118 -78
-60 -150 -149 -202 -252 -40 -80 -43 -94 -55 -250 -3 -47 -8 -98 -10 -115 -3
-16 -7 -41 -9 -55 -2 -14 -8 -43 -14 -65 -5 -22 -13 -52 -16 -67 -9 -39 -21
-35 -35 12 -14 48 -53 73 -88 57 -13 -6 -23 -13 -24 -16 0 -3 -2 -13 -4 -21
-29 -145 -36 -185 -41 -240 -13 -118 -6 -357 12 -438 3 -13 7 -43 10 -65 7
-55 63 -249 75 -261 5 -6 9 -18 9 -28 0 -10 4 -26 9 -36 4 -9 23 -48 42 -87
72 -151 188 -300 316 -407 83 -69 107 -85 217 -143 76 -40 219 -90 282 -100
22 -3 55 -10 73 -15 36 -10 36 -10 57 -10 8 0 13 -3 10 -8 -5 -8 -92 -15 -191
-16 -132 0 -335 25 -469 60 -75 19 -306 111 -327 130 -8 8 -20 14 -26 14 -5 0
-35 18 -67 40 -31 22 -59 40 -62 40 -7 0 -149 116 -199 163 -22 20 -43 37 -47
37 -9 0 -163 179 -214 250 -54 74 -143 230 -161 282 -8 23 -21 54 -28 68 -23
41 -52 137 -84 270 -38 160 -42 184 -56 349 -3 41 -8 78 -11 83 -7 10 -6 116
1 148 2 14 7 54 10 90 6 78 13 136 20 170 3 14 8 48 11 75 4 28 11 53 17 56 5
4 0 12 -12 19 -20 10 -22 9 -20 -7 2 -10 -2 -27 -8 -38 -8 -16 -19 -59 -25
-102 0 -1 -7 -28 -15 -60 -7 -32 -16 -76 -18 -98 -3 -22 -7 -51 -11 -65 -6
-27 -7 -36 -20 -175 -14 -144 -8 -394 12 -489 3 -12 7 -39 10 -60 4 -22 14
-69 24 -105 10 -36 16 -69 14 -73 -3 -4 0 -8 5 -8 6 0 11 -10 11 -22 0 -13 6
-34 13 -48 7 -14 23 -54 36 -90 56 -157 293 -497 422 -605 174 -146 213 -175
329 -246 73 -45 142 -77 290 -132 113 -43 239 -75 358 -92 17 -3 47 -7 66 -10
160 -22 534 -23 639 0 29 6 108 17 127 17 22 1 185 34 255 52 148 39 373 124
525 199 134 66 379 207 425 244 6 5 33 23 60 40 28 18 55 36 60 40 6 5 39 31
75 57 79 60 227 184 295 248 27 26 53 48 56 48 4 0 49 48 100 108 51 59 96
109 99 112 16 15 104 126 156 195 63 85 65 87 147 207 28 42 67 88 85 102 l33
24 47 -20 c26 -11 61 -26 79 -34 17 -8 38 -14 47 -14 9 0 16 -5 16 -10 0 -6 3
-9 8 -8 8 1 33 -7 77 -27 87 -38 139 -55 148 -46 5 5 -55 56 -146 123 -203
152 -202 151 -224 140 -44 -23 -230 -57 -298 -54 -114 4 -312 58 -322 88 -2 6
16 16 39 23 134 39 243 175 242 301 0 62 -30 127 -73 161 -106 83 -207 150
-220 145 -122 -42 -198 -67 -220 -71 -123 -21 -217 -24 -311 -12 -68 9 -110
22 -175 55 l-49 25 39 14 c101 38 185 91 185 118 0 8 4 15 9 15 14 0 63 109
66 145 4 49 -13 70 -83 105 -37 17 -96 47 -132 66 -60 30 -96 45 -104 41 -1
-1 -10 4 -19 11 -13 11 -28 8 -94 -18 -83 -34 -179 -68 -209 -73 -11 -2 -30
-7 -44 -10 -14 -3 -43 -9 -65 -12 -61 -8 -110 -17 -114 -20 -1 -2 -13 0 -25 4
-11 5 -48 12 -80 15 -65 8 -130 28 -189 58 -35 18 -42 38 -13 38 7 0 28 7 47
16 125 60 201 154 134 166 -15 3 -22 1 -18 -5 3 -6 1 -7 -4 -4 -14 8 -62 16
-138 22 -33 2 -60 5 -60 6 0 2 -95 5 -98 3z"/>
<path d="M1556 8935 c-9 -23 -8 -25 9 -25 17 0 19 9 6 28 -7 11 -10 10 -15 -3z"/>
<path d="M1540 8885 c-10 -12 -10 -15 4 -15 9 0 16 7 16 15 0 8 -2 15 -4 15
-2 0 -9 -7 -16 -15z"/>
<path d="M6574 7249 c-3 -6 -2 -15 4 -21 13 -13 32 -2 32 18 0 16 -26 19 -36
3z"/>
</g>
</svg>
